<svg width="845" height="148" viewBox="0 0 845 148" fill="none" xmlns="http://www.w3.org/2000/svg">
<path fill-rule="evenodd" clip-rule="evenodd" d="M0.412109 145.969L18.2481 0.368896H51.0081L68.8441 145.969H48.7331L45.2751 109.66H23.9811L20.6141 145.969H0.412109ZM25.8921 92.1879H43.4551L40.3611 60.1559L37.1761 17.8409H32.0801L28.9861 60.1559L25.8921 92.1879ZM87.5361 145.969V0.368896H107.192V128.497H139.679V145.969H87.5361ZM157.734 0.368896V145.969H209.695V128.497H177.39V80.9949H207.875V63.5229H177.39V17.8409H209.695V0.368896H157.734ZM224.254 145.969L243.728 70.9849L224.891 0.368896H244.092L252.1 34.5849L255.831 63.0679H259.38L263.02 34.5849L270.846 0.368896H290.047L271.938 71.6219L290.684 145.969H271.483L263.202 110.024L259.38 80.5399H255.831L252.009 110.024L243.455 145.969H224.254ZM500.599 109.387V145.969H520.255V109.478L543.915 0.368896H523.713L516.251 38.5889L512.52 80.8129H508.334L504.512 38.5889L497.141 0.368896H477.03L500.599 109.387ZM591.964 147.516C580.923 147.516 573.006 145.211 568.213 140.6C563.481 135.929 561.055 128.194 560.933 117.395C560.691 97.9816 560.569 78.4772 560.569 58.8819C560.569 39.2259 560.691 19.7216 560.933 0.368896H580.589C580.407 13.2909 580.286 26.5769 580.225 40.2269C580.165 53.8162 580.165 67.4359 580.225 81.0859C580.286 94.6752 580.377 107.931 580.498 120.853C580.498 124.311 581.469 126.92 583.41 128.679C585.352 130.378 588.203 131.227 591.964 131.227C595.786 131.227 598.607 130.378 600.427 128.679C602.308 126.92 603.248 124.311 603.248 120.853C603.37 107.931 603.461 94.6752 603.521 81.0859C603.582 67.4359 603.582 53.8162 603.521 40.2269C603.521 26.5769 603.43 13.2909 603.248 0.368896H622.904C623.208 19.7216 623.359 39.2259 623.359 58.8819C623.359 78.4772 623.208 97.9816 622.904 117.395C622.783 128.194 620.326 135.929 615.533 140.6C610.801 145.211 602.945 147.516 591.964 147.516ZM645.913 0.368896V145.969H675.943C686.985 145.969 694.962 143.573 699.876 138.78C704.79 133.987 707.338 126.101 707.52 115.12C707.702 105.11 707.824 95.6156 707.884 86.6369C707.945 77.5976 707.945 68.5886 707.884 59.6099C707.824 50.6312 707.702 41.1369 707.52 31.1269C707.338 20.1462 704.79 12.2899 699.876 7.5579C694.962 2.76523 687.015 0.368896 676.034 0.368896H645.913ZM675.943 128.497H665.569V17.8409H676.034C679.978 17.8409 682.92 18.7509 684.861 20.5709C686.803 22.3909 687.804 25.1512 687.864 28.8519C688.046 36.2532 688.168 43.6546 688.228 51.0559C688.289 58.3966 688.319 65.7372 688.319 73.0779C688.319 80.4186 688.289 87.7896 688.228 95.1909C688.168 102.532 688.046 109.903 687.864 117.304C687.804 121.065 686.803 123.886 684.861 125.767C682.92 127.587 679.947 128.497 675.943 128.497ZM731.041 145.969V0.368896H750.697V145.969H731.041ZM774.934 0.368896V145.969H793.953L792.406 90.8229L789.039 17.7499H793.771L802.689 96.0099L812.699 145.969H844.094V0.368896H824.984L826.44 57.3349L830.08 128.497H825.621L814.428 46.5969L804.964 0.368896H774.934ZM419.969 65.7962V66.8411H418.528V72.4836H417.226V66.8411H416.19V65.7962H417.226V65.0212C417.226 64.6033 417.318 64.2564 417.5 63.9807C417.683 63.702 417.926 63.4945 418.227 63.3581C418.529 63.2188 418.857 63.1491 419.211 63.1491C419.473 63.1491 419.696 63.1709 419.882 63.2144C420.068 63.2551 420.206 63.2928 420.296 63.3276L419.991 64.3812C419.93 64.3638 419.851 64.3435 419.756 64.3203C419.66 64.2941 419.544 64.2811 419.407 64.2811C419.091 64.2811 418.865 64.3595 418.728 64.5162C418.595 64.6729 418.528 64.8993 418.528 65.1954V65.7962H419.969ZM356.149 72.4836V65.7962H357.451V72.4836H356.149ZM356.807 64.7644C356.58 64.7644 356.386 64.6889 356.223 64.538C356.064 64.3841 355.984 64.2013 355.984 63.9894C355.984 63.7746 356.064 63.5917 356.223 63.4408C356.386 63.287 356.58 63.2101 356.807 63.2101C357.033 63.2101 357.226 63.287 357.386 63.4408C357.548 63.5917 357.63 63.7746 357.63 63.9894C357.63 64.2013 357.548 64.3841 357.386 64.538C357.226 64.6889 357.033 64.7644 356.807 64.7644ZM333.153 72.4836V63.5671H331.807V72.4836H333.153ZM336.799 72.4836V68.5129C336.799 68.1588 336.866 67.857 337 67.6074C337.136 67.3548 337.32 67.1633 337.553 67.0327C337.788 66.902 338.056 66.8367 338.358 66.8367C338.799 66.8367 339.146 66.9746 339.399 67.2503C339.651 67.5232 339.777 67.902 339.777 68.3867V72.4836H341.079V68.2299C341.079 67.6785 340.985 67.2155 340.796 66.8411C340.607 66.4667 340.342 66.1851 339.999 65.9965C339.657 65.8049 339.258 65.7091 338.802 65.7091C338.3 65.7091 337.883 65.8165 337.553 66.0313C337.225 66.2461 336.984 66.5305 336.83 66.8846H336.747V65.7962H335.498V72.4836H336.799ZM346.437 65.7962V66.8411H345.066V70.52C345.066 70.7725 345.103 70.9626 345.179 71.0904C345.254 71.2152 345.352 71.3008 345.47 71.3472C345.592 71.3908 345.724 71.4125 345.867 71.4125C345.971 71.4125 346.063 71.4053 346.141 71.3908C346.219 71.3763 346.28 71.3646 346.324 71.3559L346.559 72.4313C346.483 72.4603 346.376 72.4894 346.237 72.5184C346.097 72.5503 345.923 72.5677 345.714 72.5706C345.372 72.5764 345.053 72.5155 344.757 72.3878C344.46 72.2601 344.221 72.0627 344.038 71.7957C343.855 71.5286 343.764 71.1934 343.764 70.7899V66.8411H342.784V65.7962H343.764V64.194H345.066V65.7962H346.437ZM352.604 65.7962V69.7102C352.607 70.0904 352.527 70.4039 352.364 70.6506C352.205 70.8973 352.003 71.0816 351.759 71.2036C351.518 71.3255 351.276 71.3864 351.032 71.3864C350.629 71.3864 350.301 71.2514 350.048 70.9815C349.795 70.7116 349.669 70.3488 349.669 69.8931V65.7962H348.367V70.0498C348.367 70.6013 348.46 71.0642 348.646 71.4387C348.835 71.8131 349.093 72.0961 349.421 72.2876C349.752 72.4763 350.132 72.5706 350.562 72.5706C351.064 72.5706 351.483 72.4531 351.82 72.218C352.16 71.98 352.406 71.6825 352.56 71.3255H352.63V72.4836H353.91V65.7962H352.604ZM362.814 66.8411V65.7962H361.443V64.194H360.141V65.7962H359.162V66.8411H360.141V70.7899C360.141 71.1934 360.233 71.5286 360.415 71.7957C360.598 72.0627 360.838 72.2601 361.134 72.3878C361.43 72.5155 361.749 72.5764 362.092 72.5706C362.301 72.5677 362.475 72.5503 362.614 72.5184C362.753 72.4894 362.861 72.4603 362.936 72.4313L362.701 71.3559C362.658 71.3646 362.597 71.3763 362.518 71.3908C362.44 71.4053 362.349 71.4125 362.244 71.4125C362.102 71.4125 361.97 71.3908 361.848 71.3472C361.729 71.3008 361.632 71.2152 361.556 71.0904C361.481 70.9626 361.443 70.7725 361.443 70.52V66.8411H362.814ZM364.745 72.4836V65.7962H366.047V72.4836H364.745ZM365.402 64.7644C365.176 64.7644 364.981 64.6889 364.819 64.538C364.659 64.3841 364.579 64.2013 364.579 63.9894C364.579 63.7746 364.659 63.5917 364.819 63.4408C364.981 63.287 365.176 63.2101 365.402 63.2101C365.629 63.2101 365.822 63.287 365.981 63.4408C366.144 63.5917 366.225 63.7746 366.225 63.9894C366.225 64.2013 366.144 64.3841 365.981 64.538C365.822 64.6889 365.629 64.7644 365.402 64.7644ZM371.584 72.4836L374.009 65.7962H372.612L370.922 70.9423H370.853L369.159 65.7962H367.762L370.191 72.4836H371.584ZM378.378 72.6185C377.719 72.6185 377.151 72.4778 376.675 72.1962C376.202 71.9118 375.837 71.5127 375.578 70.9989C375.323 70.4823 375.195 69.8771 375.195 69.1834C375.195 68.4984 375.323 67.8947 375.578 67.3723C375.837 66.8498 376.196 66.442 376.658 66.1488C377.122 65.8557 377.665 65.7091 378.286 65.7091C378.664 65.7091 379.029 65.7715 379.383 65.8963C379.737 66.0211 380.055 66.2171 380.337 66.4841C380.618 66.7511 380.84 67.098 381.003 67.5246C381.166 67.9484 381.247 68.4636 381.247 69.0702V69.5317H376.494C376.504 69.9393 376.582 70.2891 376.728 70.581C376.887 70.8944 377.109 71.1339 377.394 71.2993C377.678 71.4619 378.01 71.5431 378.391 71.5431C378.637 71.5431 378.862 71.5083 379.066 71.4387C379.269 71.3661 379.444 71.2587 379.592 71.1165C379.74 70.9743 379.854 70.7987 379.932 70.5897L381.164 70.8117C381.065 71.1745 380.888 71.4924 380.633 71.7652C380.38 72.0351 380.063 72.2456 379.679 72.3965C379.299 72.5445 378.865 72.6185 378.378 72.6185ZM376.71 67.751C376.583 68.0005 376.511 68.269 376.496 68.5565H379.971C379.971 68.214 379.901 67.9107 379.762 67.6465C379.623 67.3795 379.427 67.1691 379.174 67.0152C378.925 66.8614 378.632 66.7845 378.295 66.7845C377.929 66.7845 377.61 66.8745 377.337 67.0544C377.067 67.2315 376.858 67.4637 376.71 67.751ZM388.366 72.4836V63.5671H387.021V72.4836H388.366ZM392.013 68.5129V72.4836H390.711V65.7962H391.961V66.8846H392.044C392.198 66.5305 392.438 66.2461 392.766 66.0313C393.097 65.8165 393.514 65.7091 394.016 65.7091C394.472 65.7091 394.871 65.8049 395.213 65.9965C395.556 66.1851 395.821 66.4667 396.01 66.8411C396.199 67.2155 396.293 67.6785 396.293 68.2299V72.4836H394.991V68.3867C394.991 67.902 394.865 67.5232 394.612 67.2503C394.36 66.9746 394.013 66.8367 393.572 66.8367C393.27 66.8367 393.002 66.902 392.766 67.0327C392.534 67.1633 392.35 67.3548 392.214 67.6074C392.08 67.857 392.013 68.1588 392.013 68.5129ZM401.651 66.8411V65.7962H400.279V64.194H398.978V65.7962H397.998V66.8411H398.978V70.7899C398.978 71.1934 399.069 71.5286 399.252 71.7957C399.435 72.0627 399.674 72.2601 399.97 72.3878C400.266 72.5155 400.586 72.5764 400.928 72.5706C401.137 72.5677 401.311 72.5503 401.451 72.5184C401.59 72.4894 401.697 72.4603 401.773 72.4313L401.538 71.3559C401.494 71.3646 401.433 71.3763 401.355 71.3908C401.276 71.4053 401.185 71.4125 401.081 71.4125C400.938 71.4125 400.806 71.3908 400.684 71.3472C400.565 71.3008 400.468 71.2152 400.393 71.0904C400.317 70.9626 400.279 70.7725 400.279 70.52V66.8411H401.651ZM406.392 72.6185C405.733 72.6185 405.165 72.4778 404.689 72.1962C404.216 71.9118 403.851 71.5127 403.592 70.9989C403.337 70.4823 403.209 69.8771 403.209 69.1834C403.209 68.4984 403.337 67.8947 403.592 67.3723C403.851 66.8498 404.21 66.442 404.672 66.1488C405.136 65.8557 405.679 65.7091 406.3 65.7091C406.678 65.7091 407.043 65.7715 407.397 65.8963C407.751 66.0211 408.069 66.2171 408.351 66.4841C408.632 66.7511 408.854 67.098 409.017 67.5246C409.18 67.9484 409.261 68.4636 409.261 69.0702V69.5317H404.508C404.518 69.9393 404.596 70.2891 404.742 70.581C404.901 70.8944 405.123 71.1339 405.408 71.2993C405.692 71.4619 406.025 71.5431 406.405 71.5431C406.651 71.5431 406.876 71.5083 407.08 71.4387C407.283 71.3661 407.458 71.2587 407.606 71.1165C407.754 70.9743 407.868 70.7987 407.946 70.5897L409.178 70.8117C409.079 71.1745 408.902 71.4924 408.647 71.7652C408.394 72.0351 408.077 72.2456 407.693 72.3965C407.313 72.5445 406.879 72.6185 406.392 72.6185ZM404.724 67.751C404.597 68.0005 404.525 68.269 404.51 68.5565H407.985C407.985 68.214 407.915 67.9107 407.776 67.6465C407.637 67.3795 407.441 67.1691 407.188 67.0152C406.939 66.8614 406.646 66.7845 406.309 66.7845C405.943 66.7845 405.624 66.8745 405.351 67.0544C405.081 67.2315 404.872 67.4637 404.724 67.751ZM411.196 65.7962V72.4836H412.497V68.3997C412.497 68.1095 412.567 67.8512 412.706 67.6248C412.846 67.3955 413.034 67.217 413.272 67.0893C413.513 66.9586 413.788 66.8933 414.095 66.8933C414.229 66.8933 414.362 66.9035 414.496 66.9238C414.629 66.9412 414.722 66.9572 414.774 66.9717V65.7265C414.71 65.7178 414.622 65.7106 414.509 65.7048C414.474 65.7029 414.44 65.7014 414.408 65.7001C414.372 65.6987 414.338 65.6977 414.306 65.697C414.276 65.6964 414.248 65.6961 414.221 65.6961C413.83 65.6961 413.478 65.8005 413.168 66.0095C412.86 66.2156 412.645 66.4986 412.523 66.8585H412.454V65.7962H411.196ZM422.396 72.3965C422.738 72.5532 423.121 72.6316 423.545 72.6316C423.914 72.6316 424.23 72.5779 424.494 72.4705C424.758 72.3631 424.975 72.2281 425.143 72.0656C425.311 71.9031 425.438 71.7376 425.522 71.5693H425.574V72.4836H426.845V68.0427C426.845 67.5551 426.761 67.1589 426.593 66.8542C426.424 66.5465 426.208 66.3099 425.944 66.1445C425.683 65.979 425.401 65.8659 425.099 65.8049C424.8 65.741 424.517 65.7091 424.25 65.7091C423.847 65.7091 423.462 65.7672 423.097 65.8833C422.731 65.9965 422.407 66.1793 422.126 66.4318C421.847 66.6815 421.635 67.0094 421.49 67.4158L422.714 67.6944C422.809 67.4593 422.982 67.246 423.232 67.0544C423.484 66.86 423.83 66.7627 424.268 66.7627C424.689 66.7627 425.005 66.8672 425.217 67.0762C425.432 67.2852 425.539 67.5798 425.539 67.96V67.9905C425.539 68.1472 425.483 68.2604 425.369 68.3301C425.256 68.3997 425.075 68.4505 424.825 68.4825L423.85 68.5957C423.534 68.6334 423.223 68.6885 422.918 68.7611C422.613 68.8337 422.338 68.9411 422.091 69.0833C421.844 69.2255 421.648 69.4185 421.503 69.6623C421.358 69.9061 421.286 70.2167 421.286 70.594C421.286 71.0323 421.384 71.4024 421.582 71.7042C421.782 72.0061 422.053 72.2368 422.396 72.3965ZM424.751 71.3734C424.496 71.5156 424.188 71.5867 423.828 71.5867C423.459 71.5867 423.156 71.5054 422.918 71.3429C422.68 71.1774 422.561 70.9336 422.561 70.6114C422.561 70.3792 422.622 70.1935 422.744 70.0542C422.869 69.9119 423.034 69.8031 423.24 69.7276C423.449 69.6522 423.68 69.5985 423.933 69.5665C424.04 69.552 424.173 69.5346 424.333 69.5143C424.493 69.4911 424.657 69.4664 424.825 69.4403C424.993 69.4113 425.143 69.3779 425.274 69.3401C425.407 69.2995 425.497 69.256 425.543 69.2095V70.0716C425.543 70.3357 425.475 70.5839 425.339 70.8161C425.205 71.0454 425.009 71.2311 424.751 71.3734ZM431.886 72.6185C431.239 72.6185 430.682 72.4719 430.215 72.1788C429.75 71.8827 429.393 71.4749 429.144 70.9554C428.894 70.4358 428.769 69.8408 428.769 69.1703C428.769 68.4912 428.897 67.8918 429.152 67.3723C429.408 66.8498 429.768 66.442 430.232 66.1488C430.696 65.8557 431.244 65.7091 431.873 65.7091C432.381 65.7091 432.834 65.8035 433.232 65.9921C433.629 66.1779 433.95 66.4391 434.194 66.7758C434.441 67.1125 434.587 67.5058 434.634 67.9557H433.367C433.297 67.6422 433.137 67.3723 432.888 67.1459C432.641 66.9195 432.31 66.8063 431.895 66.8063C431.532 66.8063 431.215 66.902 430.942 67.0936C430.672 67.2823 430.461 67.5522 430.31 67.9034C430.159 68.2517 430.084 68.6639 430.084 69.1399C430.084 69.6275 430.158 70.0484 430.306 70.4025C430.454 70.7566 430.663 71.0309 430.933 71.2253C431.206 71.4198 431.527 71.517 431.895 71.517C432.142 71.517 432.365 71.472 432.566 71.3821C432.769 71.2892 432.939 71.1571 433.075 70.9859C433.214 70.8146 433.312 70.6085 433.367 70.3676H434.634C434.587 70.8001 434.446 71.1861 434.211 71.5257C433.976 71.8653 433.661 72.1324 433.267 72.3268C432.875 72.5213 432.415 72.6185 431.886 72.6185ZM437.696 72.1962C438.172 72.4778 438.74 72.6185 439.398 72.6185C439.886 72.6185 440.32 72.5445 440.7 72.3965C441.083 72.2456 441.401 72.0351 441.654 71.7652C441.909 71.4924 442.086 71.1745 442.185 70.8117L440.953 70.5897C440.874 70.7987 440.761 70.9743 440.613 71.1165C440.465 71.2587 440.289 71.3661 440.086 71.4387C439.883 71.5083 439.658 71.5431 439.411 71.5431C439.031 71.5431 438.699 71.4619 438.414 71.2993C438.13 71.1339 437.908 70.8944 437.748 70.581C437.602 70.2891 437.524 69.9393 437.514 69.5317H442.267V69.0702C442.267 68.4636 442.186 67.9484 442.024 67.5246C441.861 67.098 441.639 66.7511 441.358 66.4841C441.076 66.2171 440.758 66.0211 440.404 65.8963C440.05 65.7715 439.684 65.7091 439.307 65.7091C438.686 65.7091 438.143 65.8557 437.679 66.1488C437.217 66.442 436.857 66.8498 436.599 67.3723C436.343 67.8947 436.216 68.4984 436.216 69.1834C436.216 69.8771 436.343 70.4823 436.599 70.9989C436.857 71.5127 437.223 71.9118 437.696 72.1962ZM437.516 68.5565C437.532 68.269 437.604 68.0005 437.731 67.751C437.879 67.4637 438.088 67.2315 438.358 67.0544C438.631 66.8745 438.95 66.7845 439.316 66.7845C439.652 66.7845 439.945 66.8614 440.195 67.0152C440.448 67.1691 440.644 67.3795 440.783 67.6465C440.922 67.9107 440.992 68.214 440.992 68.5565H437.516ZM322.733 84.616H319.847V75.6995H322.825C323.698 75.6995 324.449 75.878 325.075 76.235C325.702 76.5891 326.183 77.0985 326.517 77.7632C326.853 78.425 327.022 79.2188 327.022 80.1447C327.022 81.0735 326.852 81.8717 326.512 82.5393C326.176 83.2069 325.688 83.7206 325.049 84.0805C324.411 84.4375 323.639 84.616 322.733 84.616ZM321.192 83.4405H322.659C323.338 83.4405 323.903 83.3128 324.353 83.0574C324.803 82.799 325.139 82.4261 325.363 81.9385C325.586 81.4479 325.698 80.85 325.698 80.1447C325.698 79.4452 325.586 78.8516 325.363 78.364C325.142 77.8764 324.813 77.5063 324.374 77.2538C323.936 77.0013 323.392 76.875 322.742 76.875H321.192V83.4405ZM330.26 84.3287C330.736 84.6102 331.304 84.751 331.963 84.751C332.45 84.751 332.884 84.677 333.264 84.5289C333.648 84.378 333.965 84.1676 334.218 83.8977C334.473 83.6248 334.65 83.307 334.749 82.9442L333.517 82.7221C333.439 82.9311 333.325 83.1067 333.177 83.2489C333.029 83.3912 332.854 83.4986 332.651 83.5711C332.447 83.6408 332.222 83.6756 331.976 83.6756C331.595 83.6756 331.263 83.5943 330.979 83.4318C330.694 83.2664 330.472 83.0269 330.313 82.7134C330.167 82.4216 330.089 82.0718 330.079 81.6642H334.832V81.2027C334.832 80.5961 334.75 80.0809 334.588 79.6571C334.425 79.2304 334.203 78.8836 333.922 78.6165C333.64 78.3495 333.322 78.1536 332.968 78.0288C332.614 77.904 332.249 77.8416 331.871 77.8416C331.25 77.8416 330.707 77.9882 330.243 78.2813C329.781 78.5745 329.421 78.9823 329.163 79.5047C328.908 80.0272 328.78 80.6309 328.78 81.3159C328.78 82.0096 328.908 82.6147 329.163 83.1314C329.421 83.6451 329.787 84.0442 330.26 84.3287ZM330.081 80.6889C330.096 80.4015 330.168 80.133 330.295 79.8835C330.443 79.5961 330.652 79.3639 330.922 79.1869C331.195 79.0069 331.514 78.917 331.88 78.917C332.217 78.917 332.51 78.9939 332.759 79.1477C333.012 79.3015 333.208 79.512 333.347 79.779C333.486 80.0431 333.556 80.3464 333.556 80.6889H330.081ZM341.778 79.5613L340.598 79.7703C340.548 79.6194 340.47 79.4757 340.363 79.3393C340.258 79.2029 340.116 79.0911 339.936 79.004C339.756 78.917 339.531 78.8734 339.261 78.8734C338.893 78.8734 338.585 78.9561 338.338 79.1216C338.091 79.2841 337.968 79.4946 337.968 79.7529C337.968 79.9764 338.051 80.1563 338.216 80.2927C338.382 80.4292 338.649 80.5409 339.017 80.628L340.08 80.8718C340.695 81.014 341.154 81.2332 341.455 81.5292C341.757 81.8253 341.908 82.2098 341.908 82.683C341.908 83.0835 341.792 83.4405 341.56 83.754C341.331 84.0645 341.01 84.3084 340.598 84.4854C340.189 84.6625 339.714 84.751 339.174 84.751C338.425 84.751 337.814 84.5913 337.341 84.2721C336.868 83.9499 336.578 83.4928 336.47 82.9006L337.729 82.7091C337.807 83.0371 337.968 83.2852 338.212 83.4536C338.456 83.619 338.774 83.7017 339.165 83.7017C339.592 83.7017 339.933 83.6132 340.189 83.4361C340.444 83.2562 340.572 83.0371 340.572 82.7787C340.572 82.5698 340.493 82.3942 340.337 82.2519C340.183 82.1097 339.946 82.0023 339.627 81.9298L338.495 81.6816C337.871 81.5394 337.409 81.313 337.11 81.0024C336.814 80.6918 336.666 80.2985 336.666 79.8225C336.666 79.4278 336.777 79.0824 336.997 78.7863C337.218 78.4903 337.523 78.2595 337.912 78.0941C338.3 77.9258 338.746 77.8416 339.248 77.8416C339.971 77.8416 340.54 77.9983 340.955 78.3118C341.37 78.6224 341.644 79.0389 341.778 79.5613ZM343.83 77.9286V84.616H345.132V77.9286H343.83ZM343.904 76.6704C344.067 76.8214 344.261 76.8968 344.487 76.8968C344.714 76.8968 344.907 76.8214 345.066 76.6704C345.229 76.5166 345.31 76.3337 345.31 76.1218C345.31 75.9071 345.229 75.7242 345.066 75.5733C344.907 75.4194 344.714 75.3425 344.487 75.3425C344.261 75.3425 344.067 75.4194 343.904 75.5733C343.744 75.7242 343.665 75.9071 343.665 76.1218C343.665 76.3337 343.744 76.5166 343.904 76.6704ZM350.177 87.2631C349.646 87.2631 349.189 87.1934 348.806 87.0541C348.426 86.9148 348.115 86.7305 347.874 86.5012C347.633 86.2719 347.453 86.0208 347.334 85.748L348.453 85.2865C348.532 85.4142 348.636 85.5492 348.767 85.6914C348.9 85.8365 349.08 85.9599 349.307 86.0615C349.536 86.1631 349.83 86.2138 350.19 86.2138C350.684 86.2138 351.092 86.0934 351.414 85.8525C351.736 85.6145 351.897 85.2343 351.897 84.7118V83.397H351.814C351.736 83.5392 351.623 83.6974 351.475 83.8715C351.33 84.0457 351.129 84.1966 350.874 84.3243C350.618 84.452 350.286 84.5159 349.877 84.5159C349.349 84.5159 348.873 84.3925 348.449 84.1458C348.028 83.8962 347.694 83.529 347.447 83.0443C347.204 82.5567 347.082 81.9573 347.082 81.2462C347.082 80.5351 347.202 79.9256 347.443 79.4176C347.687 78.9097 348.021 78.5208 348.444 78.2508C348.868 77.978 349.349 77.8416 349.886 77.8416C350.301 77.8416 350.636 77.9112 350.891 78.0506C351.147 78.187 351.346 78.3466 351.488 78.5295C351.633 78.7123 351.745 78.8734 351.823 79.0127H351.919V77.9286H353.194V84.764C353.194 85.3387 353.061 85.8104 352.794 86.179C352.527 86.5476 352.165 86.8205 351.71 86.9975C351.257 87.1746 350.746 87.2631 350.177 87.2631ZM350.164 83.4361C350.539 83.4361 350.855 83.3491 351.113 83.1749C351.375 82.9979 351.572 82.7454 351.705 82.4174C351.842 82.0865 351.91 81.6903 351.91 81.2288C351.91 80.7789 351.843 80.3827 351.71 80.0402C351.576 79.6977 351.38 79.4307 351.122 79.2391C350.864 79.0447 350.544 78.9474 350.164 78.9474C349.772 78.9474 349.446 79.049 349.185 79.2522C348.923 79.4525 348.726 79.7253 348.592 80.0707C348.462 80.4161 348.397 80.8021 348.397 81.2288C348.397 81.6671 348.463 82.0517 348.597 82.3825C348.73 82.7134 348.928 82.9717 349.189 83.1575C349.453 83.3433 349.778 83.4361 350.164 83.4361ZM356.732 84.616V80.6454C356.732 80.2913 356.799 79.9894 356.933 79.7398C357.069 79.4873 357.253 79.2957 357.486 79.1651C357.721 79.0345 357.989 78.9692 358.291 78.9692C358.732 78.9692 359.079 79.1071 359.332 79.3828C359.584 79.6556 359.71 80.0344 359.71 80.5191V84.616H361.012V80.3624C361.012 79.8109 360.918 79.348 360.729 78.9736C360.541 78.5991 360.275 78.3176 359.932 78.1289C359.59 77.9374 359.191 77.8416 358.735 77.8416C358.233 77.8416 357.817 77.949 357.486 78.1638C357.158 78.3785 356.917 78.663 356.763 79.0171H356.68V77.9286H355.431V84.616H356.732ZM366.131 84.751C365.472 84.751 364.904 84.6102 364.428 84.3287C363.955 84.0442 363.59 83.6451 363.331 83.1314C363.076 82.6147 362.948 82.0096 362.948 81.3159C362.948 80.6309 363.076 80.0272 363.331 79.5047C363.59 78.9823 363.949 78.5745 364.411 78.2813C364.875 77.9882 365.418 77.8416 366.039 77.8416C366.417 77.8416 366.782 77.904 367.136 78.0288C367.49 78.1536 367.808 78.3495 368.09 78.6165C368.371 78.8836 368.593 79.2304 368.756 79.6571C368.919 80.0809 369 80.5961 369 81.2027V81.6642H364.247C364.257 82.0718 364.335 82.4216 364.481 82.7134C364.64 83.0269 364.862 83.2664 365.147 83.4318C365.431 83.5943 365.763 83.6756 366.144 83.6756C366.39 83.6756 366.615 83.6408 366.819 83.5711C367.022 83.4986 367.197 83.3912 367.345 83.2489C367.493 83.1067 367.607 82.9311 367.685 82.7221L368.917 82.9442C368.818 83.307 368.641 83.6248 368.386 83.8977C368.133 84.1676 367.816 84.378 367.432 84.5289C367.052 84.677 366.618 84.751 366.131 84.751ZM364.463 79.8835C364.336 80.133 364.264 80.4015 364.249 80.6889H367.724C367.724 80.3464 367.654 80.0431 367.515 79.779C367.376 79.512 367.18 79.3015 366.927 79.1477C366.678 78.9939 366.385 78.917 366.048 78.917C365.682 78.917 365.363 79.0069 365.09 79.1869C364.82 79.3639 364.611 79.5961 364.463 79.8835ZM370.935 77.9286V84.616H372.236V80.5322C372.236 80.242 372.306 79.9836 372.445 79.7572C372.585 79.5279 372.773 79.3494 373.011 79.2217C373.252 79.0911 373.526 79.0258 373.834 79.0258C373.968 79.0258 374.101 79.036 374.235 79.0563C374.368 79.0737 374.461 79.0897 374.513 79.1042V77.859C374.449 77.8503 374.361 77.843 374.248 77.8372C374.137 77.8314 374.042 77.8285 373.96 77.8285C373.569 77.8285 373.217 77.933 372.907 78.142C372.599 78.3481 372.384 78.6311 372.262 78.991H372.193V77.9286H370.935ZM382.46 84.7423C381.862 84.7423 381.347 84.6334 380.915 84.4157C380.485 84.1981 380.154 83.902 379.922 83.5276C379.69 83.1503 379.574 82.7236 379.574 82.2476C379.574 81.8848 379.649 81.5626 379.8 81.281C379.951 80.9966 380.161 80.7339 380.431 80.493C380.681 80.27 380.967 80.0458 381.289 79.8203C381.236 79.7563 381.184 79.6932 381.132 79.631C380.886 79.3291 380.685 79.0243 380.531 78.7167C380.38 78.4061 380.305 78.0709 380.305 77.711C380.305 77.3017 380.398 76.9389 380.584 76.6225C380.772 76.3033 381.035 76.0536 381.372 75.8737C381.708 75.6937 382.103 75.6037 382.556 75.6037C383.015 75.6037 383.408 75.6937 383.736 75.8737C384.067 76.0507 384.321 76.2873 384.498 76.5833C384.678 76.8765 384.768 77.1972 384.768 77.5455C384.768 77.9693 384.662 78.3437 384.45 78.6688C384.241 78.991 383.952 79.287 383.583 79.557L382.975 80.0055L384.762 82.1414C384.813 82.0433 384.86 81.9408 384.903 81.834C385.054 81.4566 385.129 81.0343 385.129 80.567H386.305C386.305 81.1417 386.239 81.6279 386.109 82.0255C385.978 82.4203 385.82 82.7425 385.634 82.9921C385.62 83.0113 385.606 83.0303 385.591 83.0489C385.58 83.0638 385.569 83.0785 385.557 83.093L386.831 84.616H385.36L384.759 83.9096C384.469 84.1841 384.124 84.3891 383.723 84.5246C383.296 84.6697 382.875 84.7423 382.46 84.7423ZM381.794 80.8761L382.03 80.7023L384.028 83.0503C383.842 83.2042 383.644 83.3299 383.431 83.4274C383.118 83.5697 382.795 83.6408 382.465 83.6408C382.142 83.6408 381.861 83.5755 381.62 83.4449C381.382 83.3142 381.196 83.1401 381.063 82.9224C380.932 82.7047 380.867 82.4682 380.867 82.2127C380.867 82.0734 380.933 81.8804 381.067 81.6337C381.203 81.3841 381.446 81.1316 381.794 80.8761ZM382.804 78.7515L382.257 79.1379L382.134 78.9866C381.957 78.766 381.811 78.5527 381.698 78.3466C381.588 78.1405 381.533 77.9359 381.533 77.7327C381.533 77.5586 381.576 77.3931 381.663 77.2364C381.753 77.0768 381.877 76.9462 382.033 76.8446C382.193 76.743 382.377 76.6922 382.586 76.6922C382.888 76.6922 383.129 76.788 383.309 76.9795C383.489 77.1711 383.579 77.3714 383.579 77.5804C383.579 77.8445 383.511 78.0665 383.374 78.2465C383.238 78.4235 383.048 78.5919 382.804 78.7515ZM392.181 84.616H395.068C395.973 84.616 396.745 84.4375 397.384 84.0805C398.022 83.7206 398.51 83.2069 398.847 82.5393C399.186 81.8717 399.356 81.0735 399.356 80.1447C399.356 79.2188 399.188 78.425 398.851 77.7632C398.517 77.0985 398.037 76.5891 397.41 76.235C396.783 75.878 396.033 75.6995 395.159 75.6995H392.181V84.616ZM394.994 83.4405H393.526V76.875H395.076C395.727 76.875 396.271 77.0013 396.709 77.2538C397.147 77.5063 397.477 77.8764 397.697 78.364C397.921 78.8516 398.033 79.4452 398.033 80.1447C398.033 80.85 397.921 81.4479 397.697 81.9385C397.474 82.4261 397.137 82.799 396.687 83.0574C396.237 83.3128 395.673 83.4405 394.994 83.4405ZM404.297 84.751C403.638 84.751 403.071 84.6102 402.595 84.3287C402.122 84.0442 401.756 83.6451 401.498 83.1314C401.242 82.6147 401.115 82.0096 401.115 81.3159C401.115 80.6309 401.242 80.0272 401.498 79.5047C401.756 78.9823 402.116 78.5745 402.577 78.2813C403.042 77.9882 403.585 77.8416 404.206 77.8416C404.583 77.8416 404.949 77.904 405.303 78.0288C405.657 78.1536 405.975 78.3495 406.256 78.6165C406.538 78.8836 406.76 79.2304 406.922 79.6571C407.085 80.0809 407.166 80.5961 407.166 81.2027V81.6642H402.413C402.423 82.0718 402.501 82.4216 402.647 82.7134C402.807 83.0269 403.029 83.2664 403.313 83.4318C403.598 83.5943 403.93 83.6756 404.31 83.6756C404.557 83.6756 404.782 83.6408 404.985 83.5711C405.188 83.4986 405.364 83.3912 405.512 83.2489C405.66 83.1067 405.773 82.9311 405.851 82.7221L407.084 82.9442C406.985 83.307 406.808 83.6248 406.552 83.8977C406.3 84.1676 405.982 84.378 405.599 84.5289C405.219 84.677 404.785 84.751 404.297 84.751ZM402.63 79.8835C402.502 80.133 402.431 80.4015 402.415 80.6889H405.891C405.891 80.3464 405.821 80.0431 405.682 79.779C405.542 79.512 405.346 79.3015 405.094 79.1477C404.844 78.9939 404.551 78.917 404.214 78.917C403.849 78.917 403.529 79.0069 403.257 79.1869C402.987 79.3639 402.778 79.5961 402.63 79.8835ZM412.205 84.616L414.63 77.9286H413.233L411.543 83.0748H411.474L409.78 77.9286H408.383L410.812 84.616H412.205ZM418.999 84.751C418.34 84.751 417.772 84.6102 417.297 84.3287C416.823 84.0442 416.458 83.6451 416.199 83.1314C415.944 82.6147 415.816 82.0096 415.816 81.3159C415.816 80.6309 415.944 80.0272 416.199 79.5047C416.458 78.9823 416.818 78.5745 417.279 78.2813C417.743 77.9882 418.286 77.8416 418.907 77.8416C419.285 77.8416 419.65 77.904 420.005 78.0288C420.359 78.1536 420.676 78.3495 420.958 78.6165C421.24 78.8836 421.462 79.2304 421.624 79.6571C421.787 80.0809 421.868 80.5961 421.868 81.2027V81.6642H417.115C417.125 82.0718 417.203 82.4216 417.349 82.7134C417.508 83.0269 417.73 83.2664 418.015 83.4318C418.299 83.5943 418.632 83.6756 419.012 83.6756C419.259 83.6756 419.484 83.6408 419.687 83.5711C419.89 83.4986 420.065 83.3912 420.214 83.2489C420.362 83.1067 420.475 82.9311 420.553 82.7221L421.785 82.9442C421.687 83.307 421.509 83.6248 421.254 83.8977C421.002 84.1676 420.684 84.378 420.301 84.5289C419.92 84.677 419.486 84.751 418.999 84.751ZM417.331 79.8835C417.204 80.133 417.133 80.4015 417.117 80.6889H420.592C420.592 80.3464 420.523 80.0431 420.383 79.779C420.244 79.512 420.048 79.3015 419.796 79.1477C419.546 78.9939 419.253 78.917 418.916 78.917C418.55 78.917 418.231 79.0069 417.958 79.1869C417.688 79.3639 417.479 79.5961 417.331 79.8835ZM425.104 84.616V75.6995H423.803V84.616H425.104ZM430.163 84.751C429.536 84.751 428.989 84.6073 428.522 84.32C428.054 84.0326 427.692 83.6306 427.433 83.114C427.175 82.5973 427.046 81.9936 427.046 81.3028C427.046 80.6091 427.175 80.0025 427.433 79.4829C427.692 78.9634 428.054 78.5599 428.522 78.2726C428.989 77.9853 429.536 77.8416 430.163 77.8416C430.79 77.8416 431.337 77.9853 431.804 78.2726C432.272 78.5599 432.635 78.9634 432.893 79.4829C433.151 80.0025 433.28 80.6091 433.28 81.3028C433.28 81.9936 433.151 82.5973 432.893 83.114C432.635 83.6306 432.272 84.0326 431.804 84.32C431.337 84.6073 430.79 84.751 430.163 84.751ZM430.167 83.6582C430.574 83.6582 430.91 83.5508 431.177 83.336C431.445 83.1212 431.642 82.8353 431.77 82.4783C431.9 82.1213 431.966 81.728 431.966 81.2985C431.966 80.8718 431.9 80.4799 431.77 80.1229C431.642 79.763 431.445 79.4742 431.177 79.2565C430.91 79.0389 430.574 78.93 430.167 78.93C429.758 78.93 429.419 79.0389 429.149 79.2565C428.882 79.4742 428.683 79.763 428.552 80.1229C428.424 80.4799 428.361 80.8718 428.361 81.2985C428.361 81.728 428.424 82.1213 428.552 82.4783C428.683 82.8353 428.882 83.1212 429.149 83.336C429.419 83.5508 429.758 83.6582 430.167 83.6582ZM435.224 77.9286V87.1238H436.526V83.5755H436.604C436.682 83.7177 436.794 83.8802 436.939 84.0631C437.084 84.2459 437.285 84.4056 437.54 84.542C437.798 84.6784 438.131 84.7466 438.537 84.7466C439.077 84.7466 439.557 84.6088 439.978 84.333C440.399 84.0544 440.73 83.6582 440.971 83.1444C441.212 82.6278 441.332 82.0081 441.332 81.2854C441.332 80.5627 441.21 79.9444 440.966 79.4307C440.726 78.917 440.393 78.5237 439.969 78.2508C439.546 77.978 439.064 77.8416 438.524 77.8416C438.109 77.8416 437.775 77.9112 437.523 78.0506C437.27 78.187 437.073 78.3466 436.93 78.5295C436.788 78.7123 436.679 78.8734 436.604 79.0127H436.495V77.9286H435.224ZM436.704 82.5088C436.568 82.1547 436.499 81.7425 436.499 81.2723C436.499 80.8079 436.566 80.4016 436.7 80.0533C436.833 79.705 437.029 79.4336 437.288 79.2391C437.549 79.0447 437.868 78.9474 438.245 78.9474C438.637 78.9474 438.964 79.049 439.225 79.2522C439.489 79.4554 439.686 79.7326 439.817 80.0838C439.951 80.435 440.017 80.8312 440.017 81.2723C440.017 81.7193 439.949 82.1213 439.813 82.4783C439.679 82.8353 439.482 83.1183 439.221 83.3273C438.959 83.5334 438.634 83.6364 438.245 83.6364C437.871 83.6364 437.555 83.5377 437.296 83.3404C437.038 83.1401 436.841 82.8629 436.704 82.5088ZM446.163 84.751C445.504 84.751 444.937 84.6102 444.461 84.3287C443.988 84.0442 443.622 83.6451 443.364 83.1314C443.108 82.6147 442.981 82.0096 442.981 81.3159C442.981 80.6309 443.108 80.0272 443.364 79.5047C443.622 78.9823 443.982 78.5745 444.444 78.2813C444.908 77.9882 445.451 77.8416 446.072 77.8416C446.449 77.8416 446.815 77.904 447.169 78.0288C447.523 78.1536 447.841 78.3495 448.122 78.6165C448.404 78.8836 448.626 79.2304 448.789 79.6571C448.951 80.0809 449.032 80.5961 449.032 81.2027V81.6642H444.279C444.289 82.0718 444.367 82.4216 444.513 82.7134C444.673 83.0269 444.895 83.2664 445.179 83.4318C445.464 83.5943 445.796 83.6756 446.176 83.6756C446.423 83.6756 446.648 83.6408 446.851 83.5711C447.054 83.4986 447.23 83.3912 447.378 83.2489C447.526 83.1067 447.639 82.9311 447.718 82.7221L448.95 82.9442C448.851 83.307 448.674 83.6248 448.418 83.8977C448.166 84.1676 447.848 84.378 447.465 84.5289C447.085 84.677 446.651 84.751 446.163 84.751ZM444.496 79.8835C444.368 80.133 444.297 80.4015 444.281 80.6889H447.757C447.757 80.3464 447.687 80.0431 447.548 79.779C447.408 79.512 447.212 79.3015 446.96 79.1477C446.71 78.9939 446.417 78.917 446.081 78.917C445.715 78.917 445.396 79.0069 445.123 79.1869C444.853 79.3639 444.644 79.5961 444.496 79.8835ZM452.225 77.9286H450.967V84.616H452.269V80.5322C452.269 80.242 452.339 79.9836 452.478 79.7572C452.617 79.5279 452.806 79.3494 453.044 79.2217C453.285 79.0911 453.559 79.0258 453.867 79.0258C454 79.0258 454.134 79.036 454.267 79.0563C454.401 79.0737 454.494 79.0897 454.546 79.1042V77.859C454.482 77.8503 454.394 77.843 454.28 77.8372C454.17 77.8314 454.074 77.8285 453.993 77.8285C453.601 77.8285 453.25 77.933 452.939 78.142C452.632 78.3481 452.417 78.6311 452.295 78.991H452.225V77.9286Z" fill="#D0D0D0"/>
</svg>
